<?xml version="1.0" encoding="utf-8"?>
<!-- Generator: Adobe Illustrator 21.1.0, SVG Export Plug-In . SVG Version: 6.00 Build 0)  -->
<svg version="1.1" id="lgoo" xmlns="http://www.w3.org/2000/svg" xmlns:xlink="http://www.w3.org/1999/xlink" x="0px" y="0px"
	 viewBox="0 0 362.8 60.4" style="enable-background:new 0 0 362.8 60.4;" xml:space="preserve">
<style type="text/css">
	.st0{fill:#FFFFFF;}
</style>
<title>Artboard 1</title>
<path class="st0" d="M351,16.6c1.2,0,2.1-0.9,2.1-2.1v-3.7c0-1.2-0.9-2.1-2.1-2.1h-28.2c-1.2,0-2.1,0.9-2.1,2.1v38.8
	c0,1.2,0.9,2.1,2.1,2.1H351c1.2,0,2.1-0.9,2.1-2.1v-3.7c0-1.2-0.9-2.1-2.1-2.1h-23v-10h18.8c1.2,0,2.1-0.9,2.1-2.1v-3.7
	c0-1.1-0.9-2.1-2-2.1H328v-9.4H351z"/>
<path class="st0" d="M312.8,8.7h-3.3c-0.7-0.1-1.5,0.3-1.9,0.9l-12,16.4l-12-16.4c-0.4-0.5-1-0.9-1.7-0.9h-3.5
	c-1.2,0-2.1,0.9-2.1,2.1v38.8c0,1.2,0.9,2.1,2.1,2.1h3.1c1.2,0,2.1-0.9,2.1-2.1V22.3l10.5,14.3c0.4,0.5,0.9,0.8,1.6,0.9l0,0
	c0.6-0.1,1.2-0.4,1.5-0.9l10.4-14.3v27.2c0,1.2,0.9,2.1,2.1,2.1h3.2c1.2,0,2.1-0.9,2.1-2.1V10.8C314.9,9.7,314,8.7,312.8,8.7z"/>
<path class="st0" d="M46.2,8.7h-3.3C42.2,8.7,41.4,9,41,9.6L29,26L17,9.6c-0.4-0.5-1-0.9-1.7-0.9h-3.5c-1.2,0-2.1,0.9-2.1,2.1l0,0
	v38.7c0,1.2,0.9,2.1,2.1,2.1l0,0h3.1c1.2,0,2.1-0.9,2.1-2.1c0,0,0,0,0,0V22.3l10.4,14.3c0.4,0.5,0.9,0.8,1.6,0.9l0,0
	c0.6-0.1,1.2-0.4,1.5-0.9L41,22.4v27.2c0,1.1,0.9,2,2,2.1h3.2c1.2,0,2.1-0.9,2.1-2.1l0,0V10.8C48.3,9.7,47.4,8.7,46.2,8.7L46.2,8.7z
	"/>
<path class="st0" d="M78.2,10c-0.3-0.8-1-1.3-1.9-1.3h-6c-0.8,0-1.6,0.5-1.9,1.3L52.7,48.2c-0.5,1.6-0.3,3.1,1.1,3.4h6l3-7.3l0,0
	l10.6-25.6l10.5,25.6H69.3l-3,7.3h26.6c1.3-0.3,1.6-1.8,1.1-3.4L78.2,10z"/>
<path class="st0" d="M119.2,25l14-12.3c1.1-0.9,2.1-2.9,0.2-3.9h-5.7c-1.5,0-2.3,0.8-3.1,1.6l-18.3,15.8V10.8c0-1.2-0.9-2.1-2.1-2.1
	h-3.7c-1.2,0-2.1,0.9-2.1,2.1v38.8c0,1.2,0.9,2.1,2.1,2.1h3.7c1.2,0,2.1-0.9,2.1-2.1V36.4l7.1-6.3l14.8,20c0.9,0.8,1.6,1.6,3.1,1.6
	h5.6c1.9-1,1.1-2.6,0-4L119.2,25z"/>
<path class="st0" d="M172.5,8.7h-28.2c-1.2,0-2.1,0.9-2.1,2.1v38.8c0,1.2,0.9,2.1,2.1,2.1h28.2c1.2,0,2.1-0.9,2.1-2.1v-3.7
	c0-1.2-0.9-2.1-2.1-2.1h-23v-10h18.8c1.2,0,2.1-0.9,2.1-2.1v-3.7c0-1.2-0.9-2.1-2.1-2.1h-18.8v-9.4h23c1.2,0,2.1-0.9,2.1-2.1v-3.7
	C174.6,9.7,173.7,8.7,172.5,8.7C172.5,8.7,172.5,8.7,172.5,8.7z"/>
<path class="st0" d="M223.1,8.7h-3.6c-1.2,0-2.1,0.9-2.1,2.1V26h-23V10.8c0-1.2-0.9-2.1-2.1-2.1h-3.6c-1.2,0-2.1,0.9-2.1,2.1v38.8
	c0,1.2,0.9,2.1,2.1,2.1h3.6c1.2,0,2.1-0.9,2.1-2.1V33.8h23v15.7c0,1.2,0.9,2.1,2.1,2.1h3.6c1.2,0,2.1-0.9,2.1-2.1V10.8
	C225.2,9.7,224.2,8.7,223.1,8.7z"/>
<path class="st0" d="M254.7,9v8c5.9,1.7,9.9,7.1,9.8,13.2c0.2,7.3-5.6,13.4-12.9,13.6c-7.3,0.2-13.4-5.6-13.6-12.9
	c0-0.2,0-0.5,0-0.7c-0.1-6.1,4-11.5,9.8-13.2V9c-10.2,1.9-17.6,10.8-17.5,21.2c0,11.9,9.3,21.5,20.9,21.5c11.5,0,20.9-9.7,20.9-21.5
	C272.2,19.8,264.9,10.9,254.7,9z"/>
</svg>
