<svg id="lgoo" xmlns="http://www.w3.org/2000/svg" viewBox="0 0 362.77 60.38"><defs><style>.cls-1{fill:#4d66f0;fill-rule:evenodd;}</style></defs><title>Artboard 1</title><path class="cls-1" d="M351,16.57a2.09,2.09,0,0,0,2.09-2.09V10.81A2.09,2.09,0,0,0,351,8.72H322.83a2.09,2.09,0,0,0-2.09,2.09V49.56a2.09,2.09,0,0,0,2.09,2.09H351a2.09,2.09,0,0,0,2.09-2.09V45.89A2.09,2.09,0,0,0,351,43.8h-23V33.85h18.78a2.09,2.09,0,0,0,2.09-2.09V28.09A2.09,2.09,0,0,0,346.84,26H328.05V16.57Z"/><path class="cls-1" d="M312.83,8.72h-3.3a2.14,2.14,0,0,0-1.91.88L295.61,26l-12-16.43a2.14,2.14,0,0,0-1.7-.89h-3.51a2.09,2.09,0,0,0-2.09,2.09V49.56a2.09,2.09,0,0,0,2.09,2.09h3.13a2.09,2.09,0,0,0,2.09-2.09V22.33l10.45,14.31a2.14,2.14,0,0,0,1.56.89h0a2.14,2.14,0,0,0,1.51-.88l10.41-14.27V49.56a2.09,2.09,0,0,0,2.09,2.09h3.16a2.09,2.09,0,0,0,2.09-2.09V10.81A2.09,2.09,0,0,0,312.83,8.72Z"/><path class="cls-1" d="M46.2,8.72H42.9A2.14,2.14,0,0,0,41,9.62L29,26,17,9.62a2.14,2.14,0,0,0-1.7-.89H11.77a2.09,2.09,0,0,0-2.09,2.09V49.56a2.09,2.09,0,0,0,2.09,2.09H14.9A2.09,2.09,0,0,0,17,49.56V22.33L27.43,36.64a2.14,2.14,0,0,0,1.56.89h0a2.14,2.14,0,0,0,1.51-.88L41,22.37V49.56A2.09,2.09,0,0,0,43,51.65H46.2a2.09,2.09,0,0,0,2.09-2.09V10.81A2.09,2.09,0,0,0,46.2,8.72Z"/><path class="cls-1" d="M78.21,10a2.09,2.09,0,0,0-1.86-1.29h-6A2.09,2.09,0,0,0,68.45,10L52.69,48.23c-.49,1.63-.27,3.09,1.06,3.42h6l3-7.33h0L73.33,18.75,83.88,44.32H69.28l-3,7.33h26.6c1.34-.33,1.55-1.8,1.06-3.42Z"/><path class="cls-1" d="M119.18,25l14-12.34c1.15-.9,2.09-2.92.16-3.92H127.6c-1.54,0-2.26.81-3.13,1.57L106.21,26.07V10.81a2.09,2.09,0,0,0-2.09-2.09h-3.65a2.09,2.09,0,0,0-2.09,2.09V49.56a2.09,2.09,0,0,0,2.09,2.09h3.65a2.09,2.09,0,0,0,2.09-2.09V36.41l7.14-6.29,14.75,20c.87.76,1.59,1.58,3.12,1.58h5.55c1.92-1,1.1-2.6,0-3.95Z"/><path class="cls-1" d="M172.47,8.72H144.3a2.09,2.09,0,0,0-2.09,2.09V49.56a2.09,2.09,0,0,0,2.09,2.09h28.18a2.09,2.09,0,0,0,2.09-2.09V45.89a2.09,2.09,0,0,0-2.09-2.09h-23V33.85H168.3a2.09,2.09,0,0,0,2.09-2.09V28.09A2.09,2.09,0,0,0,168.3,26H149.51V16.57h23a2.09,2.09,0,0,0,2.09-2.09V10.81A2.09,2.09,0,0,0,172.47,8.72Z"/><path class="cls-1" d="M223.09,8.72h-3.65a2.09,2.09,0,0,0-2.09,2.09V26h-23V10.81a2.09,2.09,0,0,0-2.09-2.09h-3.65a2.09,2.09,0,0,0-2.09,2.09V49.56a2.09,2.09,0,0,0,2.09,2.09h3.65a2.09,2.09,0,0,0,2.09-2.09V33.85h23V49.56a2.09,2.09,0,0,0,2.09,2.09h3.65a2.09,2.09,0,0,0,2.09-2.09V10.81A2.09,2.09,0,0,0,223.09,8.72Z"/><path class="cls-1" d="M254.66,9v8a13.56,13.56,0,0,1,9.84,13.16,13.24,13.24,0,1,1-26.47,0A13.56,13.56,0,0,1,247.86,17V9a21.3,21.3,0,0,0-17.47,21.18c0,11.86,9.34,21.47,20.87,21.47S272.13,42,272.13,30.19A21.3,21.3,0,0,0,254.66,9Z"/></svg>